<mxfile host="app.diagrams.net" agent="Mozilla/5.0 (Windows NT 10.0; Win64; x64) AppleWebKit/537.36 (KHTML, like Gecko) Chrome/131.0.0.0 Safari/537.36" version="25.0.3">
  <diagram name="Page-1" id="Ch-VVp2mB-vNG48te4Ua">
    <mxGraphModel dx="1434" dy="738" grid="0" gridSize="10" guides="1" tooltips="1" connect="1" arrows="1" fold="1" page="1" pageScale="1" pageWidth="850" pageHeight="1100" background="#242424" math="0" shadow="0">
      <root>
        <mxCell id="0" />
        <mxCell id="1" parent="0" />
        <mxCell id="Bvq2-MIhNNYNFXGWVmf5-2" value="" style="swimlane;startSize=0;labelBackgroundColor=none;strokeColor=#FFFFFF;" vertex="1" parent="1">
          <mxGeometry x="369" y="118" width="217" height="520" as="geometry" />
        </mxCell>
        <mxCell id="Bvq2-MIhNNYNFXGWVmf5-5" value="Add Players" style="ellipse;whiteSpace=wrap;html=1;labelBackgroundColor=none;" vertex="1" parent="Bvq2-MIhNNYNFXGWVmf5-2">
          <mxGeometry x="23" y="17" width="90" height="50" as="geometry" />
        </mxCell>
        <mxCell id="Bvq2-MIhNNYNFXGWVmf5-21" value="Edit Players" style="ellipse;whiteSpace=wrap;html=1;labelBackgroundColor=none;" vertex="1" parent="Bvq2-MIhNNYNFXGWVmf5-2">
          <mxGeometry x="23" y="84" width="90" height="50" as="geometry" />
        </mxCell>
        <mxCell id="Bvq2-MIhNNYNFXGWVmf5-22" value="Delete Players" style="ellipse;whiteSpace=wrap;html=1;labelBackgroundColor=none;" vertex="1" parent="Bvq2-MIhNNYNFXGWVmf5-2">
          <mxGeometry x="23" y="156" width="90" height="50" as="geometry" />
        </mxCell>
        <mxCell id="Bvq2-MIhNNYNFXGWVmf5-27" value="&lt;font style=&quot;font-size: 11px;&quot;&gt;Build the team&lt;/font&gt;&lt;div&gt;&lt;font style=&quot;font-size: 11px;&quot;&gt;Formation&lt;/font&gt;&lt;/div&gt;" style="ellipse;whiteSpace=wrap;html=1;labelBackgroundColor=none;" vertex="1" parent="Bvq2-MIhNNYNFXGWVmf5-2">
          <mxGeometry x="25" y="232" width="90" height="50" as="geometry" />
        </mxCell>
        <mxCell id="Bvq2-MIhNNYNFXGWVmf5-29" value="&lt;span style=&quot;font-size: 11px;&quot;&gt;Selecting&lt;/span&gt;&lt;div&gt;&lt;span style=&quot;font-size: 11px;&quot;&gt;Positions&lt;/span&gt;&lt;/div&gt;" style="ellipse;whiteSpace=wrap;html=1;labelBackgroundColor=none;" vertex="1" parent="Bvq2-MIhNNYNFXGWVmf5-2">
          <mxGeometry x="25" y="300" width="90" height="50" as="geometry" />
        </mxCell>
        <mxCell id="Bvq2-MIhNNYNFXGWVmf5-31" value="View&lt;div&gt;Player list&lt;/div&gt;" style="ellipse;whiteSpace=wrap;html=1;labelBackgroundColor=none;" vertex="1" parent="Bvq2-MIhNNYNFXGWVmf5-2">
          <mxGeometry x="23" y="368" width="90" height="50" as="geometry" />
        </mxCell>
        <mxCell id="Bvq2-MIhNNYNFXGWVmf5-33" value="&lt;span style=&quot;font-size: 11px;&quot;&gt;Confirm&lt;/span&gt;&lt;div&gt;&lt;span style=&quot;font-size: 11px;&quot;&gt;Selection&lt;/span&gt;&lt;/div&gt;" style="ellipse;whiteSpace=wrap;html=1;labelBackgroundColor=none;" vertex="1" parent="Bvq2-MIhNNYNFXGWVmf5-2">
          <mxGeometry x="23" y="438" width="90" height="50" as="geometry" />
        </mxCell>
        <mxCell id="Bvq2-MIhNNYNFXGWVmf5-16" value="User" style="text;html=1;align=center;verticalAlign=middle;resizable=0;points=[];autosize=1;labelBackgroundColor=none;fillColor=none;fontColor=#FFFFFF;" vertex="1" parent="1">
          <mxGeometry x="256" y="550" width="43" height="26" as="geometry" />
        </mxCell>
        <mxCell id="Bvq2-MIhNNYNFXGWVmf5-23" style="edgeStyle=orthogonalEdgeStyle;rounded=0;orthogonalLoop=1;jettySize=auto;html=1;exitX=0.5;exitY=0.5;exitDx=0;exitDy=0;exitPerimeter=0;fontColor=#FFFFFF;labelBorderColor=#FFFFFF;strokeColor=#FCFCFC;" edge="1" parent="1" source="Bvq2-MIhNNYNFXGWVmf5-18" target="Bvq2-MIhNNYNFXGWVmf5-5">
          <mxGeometry relative="1" as="geometry" />
        </mxCell>
        <mxCell id="Bvq2-MIhNNYNFXGWVmf5-24" style="edgeStyle=orthogonalEdgeStyle;rounded=0;orthogonalLoop=1;jettySize=auto;html=1;exitX=0.5;exitY=0.5;exitDx=0;exitDy=0;exitPerimeter=0;entryX=0;entryY=0.5;entryDx=0;entryDy=0;strokeColor=#FFFFFF;" edge="1" parent="1" source="Bvq2-MIhNNYNFXGWVmf5-18" target="Bvq2-MIhNNYNFXGWVmf5-21">
          <mxGeometry relative="1" as="geometry" />
        </mxCell>
        <mxCell id="Bvq2-MIhNNYNFXGWVmf5-25" style="edgeStyle=orthogonalEdgeStyle;rounded=0;orthogonalLoop=1;jettySize=auto;html=1;exitX=0.5;exitY=0.5;exitDx=0;exitDy=0;exitPerimeter=0;strokeColor=#FFFFFF;" edge="1" parent="1" source="Bvq2-MIhNNYNFXGWVmf5-18" target="Bvq2-MIhNNYNFXGWVmf5-22">
          <mxGeometry relative="1" as="geometry" />
        </mxCell>
        <mxCell id="Bvq2-MIhNNYNFXGWVmf5-18" value="Actor" style="shape=umlActor;verticalLabelPosition=bottom;verticalAlign=top;html=1;fillColor=#FFFFFF;fontColor=none;strokeColor=#FFFFFF;noLabel=1;" vertex="1" parent="1">
          <mxGeometry x="249" y="158" width="60" height="118" as="geometry" />
        </mxCell>
        <mxCell id="Bvq2-MIhNNYNFXGWVmf5-19" value="Admin" style="text;html=1;align=center;verticalAlign=middle;resizable=0;points=[];autosize=1;labelBackgroundColor=none;fillColor=none;fontColor=#FFFFFF;" vertex="1" parent="1">
          <mxGeometry x="249" y="276" width="60" height="30" as="geometry" />
        </mxCell>
        <mxCell id="Bvq2-MIhNNYNFXGWVmf5-28" style="edgeStyle=orthogonalEdgeStyle;rounded=0;orthogonalLoop=1;jettySize=auto;html=1;exitX=0.5;exitY=0.5;exitDx=0;exitDy=0;exitPerimeter=0;entryX=0;entryY=0.5;entryDx=0;entryDy=0;strokeColor=#FFFFFF;" edge="1" parent="1" source="Bvq2-MIhNNYNFXGWVmf5-20" target="Bvq2-MIhNNYNFXGWVmf5-27">
          <mxGeometry relative="1" as="geometry" />
        </mxCell>
        <mxCell id="Bvq2-MIhNNYNFXGWVmf5-47" style="edgeStyle=orthogonalEdgeStyle;rounded=0;orthogonalLoop=1;jettySize=auto;html=1;exitX=0.5;exitY=0.5;exitDx=0;exitDy=0;exitPerimeter=0;entryX=0;entryY=0.5;entryDx=0;entryDy=0;strokeColor=#FFFFFF;" edge="1" parent="1" source="Bvq2-MIhNNYNFXGWVmf5-20" target="Bvq2-MIhNNYNFXGWVmf5-29">
          <mxGeometry relative="1" as="geometry" />
        </mxCell>
        <mxCell id="Bvq2-MIhNNYNFXGWVmf5-48" style="edgeStyle=orthogonalEdgeStyle;rounded=0;orthogonalLoop=1;jettySize=auto;html=1;exitX=0.5;exitY=0.5;exitDx=0;exitDy=0;exitPerimeter=0;strokeColor=#FFFFFF;" edge="1" parent="1" source="Bvq2-MIhNNYNFXGWVmf5-20" target="Bvq2-MIhNNYNFXGWVmf5-31">
          <mxGeometry relative="1" as="geometry" />
        </mxCell>
        <mxCell id="Bvq2-MIhNNYNFXGWVmf5-49" style="edgeStyle=orthogonalEdgeStyle;rounded=0;orthogonalLoop=1;jettySize=auto;html=1;exitX=0.5;exitY=0.5;exitDx=0;exitDy=0;exitPerimeter=0;entryX=0;entryY=0.5;entryDx=0;entryDy=0;strokeColor=#FFFFFF;" edge="1" parent="1" source="Bvq2-MIhNNYNFXGWVmf5-20" target="Bvq2-MIhNNYNFXGWVmf5-33">
          <mxGeometry relative="1" as="geometry" />
        </mxCell>
        <mxCell id="Bvq2-MIhNNYNFXGWVmf5-20" value="Actor" style="shape=umlActor;verticalLabelPosition=bottom;verticalAlign=top;html=1;fillColor=#FFFFFF;fontColor=none;strokeColor=#FFFFFF;noLabel=1;" vertex="1" parent="1">
          <mxGeometry x="247" y="432" width="60" height="118" as="geometry" />
        </mxCell>
      </root>
    </mxGraphModel>
  </diagram>
</mxfile>
